<?xml version="1.0" encoding="UTF-8" standalone="no"?>
<!DOCTYPE svg PUBLIC "-//W3C//DTD SVG 20010904//EN" "http://www.w3.org/TR/2001/REC-SVG-20010904/DTD/svg10.dtd">
<svg viewBox="0 0 250 250" xmlns="http://www.w3.org/2000/svg">
<defs>
<linearGradient id="linearGradient859" x1="-1.0122" x2=".20732" y1=".50781" y2=".70313">
<stop offset="0" stop-color="#fff" stop-opacity=".5"/>
<stop offset="1" stop-color="#fff" stop-opacity=".25"/>
</linearGradient>
</defs>
<g transform="translate(-3.75)">
<path d="m153.91391,222.46025-62.31172,18.63099-48.06951-42.16346 14.24221-60.79446 62.31172-18.63099 48.06951,42.16345-14.24221,60.79447z" fill="#ffc62a" fill-rule="evenodd" stroke="#ff9500" stroke-width="2.5"/>
<path d="m233.78921,140.35318-62.31172,18.63098-48.06951-42.16346 14.24222-60.79446 62.31171-18.63099 48.06951,42.16346-14.24221,60.79447z" fill="#ffc62a" fill-rule="evenodd" stroke="#ff9500" stroke-width="2.5"/>
<path d="m120.07027,115.99896-62.31171,18.63099-48.06951-42.16347 14.24221-60.79445 62.31172-18.63099 48.06951,42.16346-14.24222,60.79446z" fill="#ffc62a" fill-rule="evenodd" stroke="#ff9500" stroke-width="2.5"/>
<path d="m84.33459,16.58363c0,0-58.76216,15.23464-58.76216,17.95511s-13.60235,52.23303-13.05826,57.12988c0,2.17638 39.71887,39.17477 44.61572,39.17477-19.04329-44.61571-29.38108-99.02513 27.20471-114.25976z" fill="url(#linearGradient859)" fill-rule="evenodd"/>
<path d="m197.51411,40.52376c0,0-58.76216,15.23464-58.76216,17.95511s-13.60235,52.23303-13.05825,57.12988c0,2.17638 39.71886,39.17478 44.61571,39.17478-19.04329-44.61572-29.38108-99.02513 27.2047-114.25977z" fill="url(#linearGradient859)" fill-rule="evenodd"/>
<path d="m118.07638,122.13787c0,0-58.76218,15.23464-58.76218,17.95511s-13.60235,52.23303-13.05825,57.12988c0,2.17638 39.71887,39.17478 44.61571,39.17478-19.04329-44.61572-29.38108-99.02513 27.20472-114.25977z" fill="url(#linearGradient859)" fill-rule="evenodd"/>
</g>
</svg>
